<?xml version="1.0" encoding="UTF-8"?>
<svg xmlns="http://www.w3.org/2000/svg" xmlns:xlink="http://www.w3.org/1999/xlink" width="144px" height="72px" viewBox="0 0 144 72" version="1.1">
<g id="surface1">
<path style=" stroke:none;fill-rule:nonzero;fill:rgb(0%,67.45098%,84.313725%);fill-opacity:1;" d="M 26.761719 29.640625 C 26.640625 29.640625 26.519531 29.519531 26.640625 29.398438 L 27.480469 28.199219 C 27.601562 28.078125 27.71875 27.960938 27.960938 27.960938 L 43.078125 27.960938 C 43.199219 27.960938 43.320312 28.078125 43.199219 28.199219 L 42.480469 29.28125 C 42.359375 29.398438 42.238281 29.519531 42 29.519531 Z M 20.398438 33.480469 C 20.28125 33.480469 20.160156 33.359375 20.28125 33.238281 L 21.121094 32.039062 C 21.238281 31.921875 21.359375 31.800781 21.601562 31.800781 L 40.921875 31.800781 C 41.039062 31.800781 41.160156 31.921875 41.160156 32.039062 L 40.800781 33.238281 C 40.800781 33.359375 40.558594 33.480469 40.441406 33.480469 Z M 30.601562 37.441406 C 30.480469 37.441406 30.359375 37.320312 30.480469 37.199219 L 31.078125 36.121094 C 31.199219 36 31.320312 35.878906 31.558594 35.878906 L 39.960938 35.878906 C 40.078125 35.878906 40.199219 36 40.199219 36.121094 L 40.078125 37.078125 C 40.078125 37.199219 39.960938 37.320312 39.839844 37.320312 Z M 74.519531 28.800781 L 67.441406 30.601562 C 66.839844 30.71875 66.71875 30.839844 66.238281 30.121094 C 65.640625 29.398438 65.160156 28.921875 64.199219 28.558594 C 61.558594 27.238281 58.921875 27.601562 56.519531 29.160156 C 53.640625 30.960938 52.199219 33.71875 52.199219 37.199219 C 52.199219 40.558594 54.601562 43.320312 57.960938 43.800781 C 60.839844 44.160156 63.238281 43.199219 65.160156 41.039062 C 65.519531 40.558594 65.878906 40.078125 66.359375 39.480469 L 58.199219 39.480469 C 57.359375 39.480469 57.121094 38.878906 57.359375 38.160156 C 57.960938 36.839844 58.921875 34.679688 59.519531 33.601562 C 59.640625 33.359375 60 32.878906 60.601562 32.878906 L 75.960938 32.878906 C 75.839844 34.078125 75.839844 35.160156 75.71875 36.359375 C 75.238281 39.359375 74.160156 42.238281 72.238281 44.640625 C 69.238281 48.601562 65.28125 51.121094 60.238281 51.839844 C 56.039062 52.441406 52.199219 51.601562 48.839844 49.078125 C 45.71875 46.679688 43.921875 43.558594 43.441406 39.71875 C 42.839844 35.160156 44.28125 30.960938 47.039062 27.359375 C 50.039062 23.398438 54 20.878906 58.921875 20.039062 C 62.878906 19.320312 66.71875 19.800781 70.078125 22.078125 C 72.359375 23.519531 73.921875 25.558594 75 28.078125 C 75.121094 28.558594 75 28.679688 74.519531 28.800781 Z M 74.519531 28.800781 "/>
<path style=" stroke:none;fill-rule:nonzero;fill:rgb(0%,67.45098%,84.313725%);fill-opacity:1;" d="M 88.441406 52.199219 C 84.601562 52.078125 81.121094 51 78.121094 48.480469 C 75.601562 46.320312 74.039062 43.558594 73.558594 40.320312 C 72.839844 35.519531 74.160156 31.320312 77.039062 27.601562 C 80.160156 23.519531 83.878906 21.480469 88.921875 20.519531 C 93.238281 19.800781 97.320312 20.160156 100.921875 22.679688 C 104.28125 24.960938 106.320312 28.078125 106.921875 32.160156 C 107.640625 37.921875 105.960938 42.480469 102.121094 46.441406 C 99.359375 49.320312 95.878906 51 92.039062 51.839844 C 90.71875 52.078125 89.519531 52.078125 88.441406 52.199219 Z M 98.519531 35.160156 C 98.519531 34.558594 98.519531 34.199219 98.398438 33.71875 C 97.679688 29.519531 93.839844 27.121094 89.761719 28.078125 C 85.800781 28.921875 83.28125 31.441406 82.320312 35.398438 C 81.601562 38.640625 83.160156 42 86.160156 43.441406 C 88.441406 44.398438 90.839844 44.28125 93 43.199219 C 96.480469 41.519531 98.28125 38.761719 98.519531 35.160156 Z M 98.519531 35.160156 "/>
</g>
</svg>
