<?xml version="1.0" encoding="UTF-8"?>
<svg xmlns="http://www.w3.org/2000/svg" xmlns:xlink="http://www.w3.org/1999/xlink" width="144px" height="72px" viewBox="0 0 144 72" version="1.1">
<g id="surface1">
<path style=" stroke:none;fill-rule:nonzero;fill:rgb(0%,55.294118%,76.078431%);fill-opacity:1;" d="M 51.890625 33.527344 C 51.890625 45.976562 41.800781 56.070312 29.347656 56.070312 C 16.898438 56.070312 6.804688 45.976562 6.804688 33.527344 C 6.804688 21.074219 16.898438 10.984375 29.347656 10.984375 C 41.800781 10.972656 51.890625 21.074219 51.890625 33.527344 "/>
<path style=" stroke:none;fill-rule:nonzero;fill:rgb(100%,100%,100%);fill-opacity:1;" d="M 16.796875 26.132812 C 16.796875 27.125 15.992188 27.933594 14.996094 27.933594 C 14.003906 27.933594 13.195312 27.125 13.195312 26.132812 C 13.195312 25.136719 14.003906 24.328125 14.996094 24.328125 C 15.476562 24.328125 15.933594 24.519531 16.273438 24.855469 C 16.609375 25.195312 16.800781 25.652344 16.796875 26.132812 "/>
<path style=" stroke:none;fill-rule:nonzero;fill:rgb(100%,100%,100%);fill-opacity:1;" d="M 17.105469 31.078125 C 17.105469 32.074219 16.296875 32.882812 15.300781 32.882812 C 14.308594 32.882812 13.5 32.074219 13.5 31.078125 C 13.5 30.085938 14.308594 29.277344 15.300781 29.277344 C 15.78125 29.277344 16.238281 29.464844 16.578125 29.804688 C 16.917969 30.140625 17.105469 30.601562 17.105469 31.078125 "/>
<path style=" stroke:none;fill-rule:nonzero;fill:rgb(100%,100%,100%);fill-opacity:1;" d="M 18.207031 36.320312 C 18.207031 37.316406 17.398438 38.125 16.40625 38.125 C 15.410156 38.125 14.601562 37.316406 14.601562 36.320312 C 14.601562 35.328125 15.410156 34.519531 16.40625 34.519531 C 17.398438 34.507812 18.207031 35.316406 18.207031 36.320312 M 20.675781 41.019531 C 20.675781 42.011719 19.867188 42.820312 18.875 42.820312 C 17.878906 42.820312 17.070312 42.011719 17.070312 41.019531 C 17.070312 40.023438 17.878906 39.214844 18.875 39.214844 C 19.867188 39.207031 20.675781 40.015625 20.675781 41.019531 "/>
<path style=" stroke:none;fill-rule:nonzero;fill:rgb(100%,100%,100%);fill-opacity:1;" d="M 39.976562 47.582031 C 39.976562 48.578125 39.167969 49.386719 38.171875 49.386719 C 37.179688 49.386719 36.371094 48.578125 36.371094 47.582031 C 36.371094 46.589844 37.179688 45.78125 38.171875 45.78125 C 39.167969 45.78125 39.976562 46.589844 39.976562 47.582031 "/>
<path style=" stroke:none;fill-rule:nonzero;fill:rgb(100%,100%,100%);fill-opacity:1;" d="M 43.253906 43.707031 C 43.253906 44.699219 42.445312 45.507812 41.449219 45.507812 C 40.457031 45.507812 39.648438 44.699219 39.648438 43.707031 C 39.648438 42.710938 40.457031 41.902344 41.449219 41.902344 C 42.445312 41.902344 43.253906 42.710938 43.253906 43.707031 "/>
<path style=" stroke:none;fill-rule:nonzero;fill:rgb(100%,100%,100%);fill-opacity:1;" d="M 33.75 16.289062 C 33.75 17.285156 32.941406 18.09375 31.949219 18.09375 C 30.953125 18.09375 30.144531 17.285156 30.144531 16.289062 C 30.144531 15.296875 30.953125 14.488281 31.949219 14.488281 C 32.941406 14.488281 33.75 15.296875 33.75 16.289062 "/>
<path style=" stroke:none;fill-rule:nonzero;fill:rgb(100%,100%,100%);fill-opacity:1;" d="M 29.007812 14.628906 C 29.007812 15.621094 28.203125 16.429688 27.207031 16.429688 C 26.214844 16.429688 25.40625 15.625 25.40625 14.628906 C 25.40625 13.628906 26.214844 12.824219 27.207031 12.824219 C 28.199219 12.824219 29.007812 13.632812 29.007812 14.628906 "/>
<path style="fill-rule:nonzero;fill:rgb(40.784314%,70.196078%,27.45098%);fill-opacity:1;stroke-width:3.5;stroke-linecap:butt;stroke-linejoin:miter;stroke:rgb(100%,100%,100%);stroke-opacity:1;stroke-miterlimit:4;" d="M 166.527534 138.454298 C 166.527534 161.789765 147.600946 180.702618 124.279214 180.702618 C 100.943747 180.702618 82.030894 161.789765 82.030894 138.454298 C 82.030894 115.118831 100.943747 96.205978 124.279214 96.205978 C 147.600946 96.205978 166.527534 115.118831 166.527534 138.454298 Z M 166.527534 138.454298 " transform="matrix(0.284405,0,0,0.284405,6.443458,-11.224723)"/>
<path style="fill-rule:nonzero;fill:rgb(40.784314%,70.196078%,27.45098%);fill-opacity:1;stroke-width:3.5;stroke-linecap:butt;stroke-linejoin:miter;stroke:rgb(100%,100%,100%);stroke-opacity:1;stroke-miterlimit:4;" d="M 100.971217 224.599117 C 100.971217 243.676788 85.492069 259.155935 66.400663 259.155935 C 47.309257 259.155935 31.843845 243.676788 31.843845 224.599117 C 31.843845 205.507711 47.309257 190.028564 66.400663 190.028564 C 85.492069 190.028564 100.971217 205.507711 100.971217 224.599117 Z M 100.971217 224.599117 " transform="matrix(0.284405,0,0,0.284405,6.443458,-11.224723)"/>
<path style="fill-rule:nonzero;fill:rgb(40.784314%,70.196078%,27.45098%);fill-opacity:1;stroke-width:3.5;stroke-linecap:butt;stroke-linejoin:miter;stroke:rgb(100%,100%,100%);stroke-opacity:1;stroke-miterlimit:4;" d="M 60.989143 95.986221 C 60.989143 108.704668 50.674289 119.019521 37.942107 119.019521 C 25.22366 119.019521 14.908807 108.704668 14.908807 95.986221 C 14.908807 83.254039 25.22366 72.939185 37.942107 72.939185 C 50.674289 72.939185 60.989143 83.254039 60.989143 95.986221 Z M 60.989143 95.986221 " transform="matrix(0.284405,0,0,0.284405,6.443458,-11.224723)"/>
<path style=" stroke:none;fill-rule:nonzero;fill:rgb(6.27451%,6.27451%,6.27451%);fill-opacity:1;" d="M 59.542969 27.265625 L 61.164062 27.265625 L 61.164062 30.40625 C 61.941406 28.496094 63.5625 27.003906 66.867188 27.003906 C 70.628906 27.003906 73.15625 29.53125 73.15625 33.519531 L 73.15625 43.601562 L 71.535156 43.601562 L 71.535156 33.84375 C 71.535156 30.570312 69.527344 28.527344 66.511719 28.527344 C 63.238281 28.527344 61.164062 31.058594 61.164062 34.816406 L 61.164062 43.601562 L 59.546875 43.601562 L 59.546875 27.265625 Z M 76.042969 35.464844 C 76.042969 30.375 79.523438 26.875 84.015625 26.875 C 88.453125 26.875 91.597656 30.539062 91.597656 35.011719 L 91.566406 35.824219 L 77.640625 35.824219 C 77.734375 39.742188 80.363281 42.542969 84.089844 42.542969 C 87.136719 42.542969 89.242188 41.246094 90.214844 40.015625 L 90.214844 41.925781 C 88.691406 43.285156 86.855469 44.066406 84.089844 44.066406 C 79.390625 44.066406 76.050781 40.628906 76.050781 35.574219 L 76.050781 35.476562 Z M 89.882812 34.363281 C 89.847656 31.023438 87.253906 28.398438 84.015625 28.398438 C 80.613281 28.398438 77.824219 31.023438 77.695312 34.363281 Z M 102.714844 26.84375 C 107.511719 26.84375 111.304688 30.507812 111.304688 35.433594 C 111.304688 40.359375 107.511719 44.019531 102.714844 44.019531 C 97.917969 44.019531 94.125 40.359375 94.125 35.433594 C 94.125 30.507812 97.917969 26.84375 102.714844 26.84375 Z M 102.714844 42.496094 C 106.703125 42.496094 109.683594 39.449219 109.683594 35.433594 C 109.683594 31.414062 106.703125 28.367188 102.714844 28.367188 C 98.730469 28.367188 95.746094 31.414062 95.746094 35.433594 C 95.746094 39.449219 98.730469 42.496094 102.714844 42.496094 Z M 119.859375 27.265625 L 121.675781 27.265625 L 114.738281 42.042969 L 124.816406 42.042969 L 124.816406 36.695312 L 126.503906 36.695312 L 126.503906 49.855469 L 124.816406 49.855469 L 124.816406 43.597656 L 112.179688 43.597656 Z M 132.046875 27.265625 L 133.664062 27.265625 L 133.664062 45.867188 C 133.664062 49.53125 131.558594 50.273438 129.515625 50.273438 C 129.128906 50.273438 128.707031 50.242188 128.4375 50.179688 L 128.4375 48.65625 C 128.824219 48.71875 129.28125 48.75 129.667969 48.75 C 131.320312 48.75 132.035156 47.941406 132.035156 45.867188 Z M 131.6875 22.890625 C 131.6875 22.207031 132.242188 21.722656 132.855469 21.722656 C 133.46875 21.722656 134.023438 22.207031 134.023438 22.890625 C 134.023438 23.535156 133.46875 24.023438 132.855469 24.023438 C 132.242188 24.023438 131.6875 23.535156 131.6875 22.890625 Z M 131.6875 22.890625 "/>
</g>
</svg>
