<?xml version="1.0" encoding="UTF-8"?>
<svg xmlns="http://www.w3.org/2000/svg" xmlns:xlink="http://www.w3.org/1999/xlink" width="144px" height="144px" viewBox="0 0 144 144" version="1.1">
<g id="surface1">
<path style=" stroke:none;fill-rule:nonzero;fill:rgb(93.72549%,80%,63.921569%);fill-opacity:1;" d="M 120.824219 57.261719 C 120.601562 52.3125 121.273438 47.925781 119.023438 44.210938 C 113.625 34.988281 100.125 29.585938 73.125 29.585938 L 73.125 30.375 L 72.5625 30.375 L 73.125 30.375 L 73.125 29.585938 C 46.125 29.585938 31.949219 34.988281 26.550781 44.324219 C 24.414062 48.148438 24.636719 52.425781 24.300781 57.375 C 24.074219 61.3125 22.273438 65.476562 23.0625 69.976562 C 23.960938 75.824219 24.300781 81.675781 25.199219 87.074219 C 25.875 91.460938 31.949219 95.175781 32.511719 99.335938 C 34.085938 110.8125 46.011719 116.101562 73.011719 116.101562 L 73.011719 117 L 72.335938 117 L 73.125 117 L 73.125 116.101562 C 100.125 116.101562 111.601562 110.8125 113.0625 99.335938 C 113.625 95.0625 119.25 91.460938 119.925781 87.074219 C 120.824219 81.675781 121.164062 75.824219 122.0625 69.976562 C 122.851562 65.476562 121.050781 61.199219 120.824219 57.261719 Z M 120.824219 57.261719 "/>
<path style=" stroke:none;fill-rule:nonzero;fill:rgb(80%,67.45098%,55.294118%);fill-opacity:1;" d="M 72.675781 61.3125 C 77.511719 61.425781 80.886719 64.460938 84.039062 67.273438 C 87.75 70.539062 94.050781 72.789062 96.636719 75.601562 C 99.226562 78.414062 102.601562 81.226562 103.835938 85.613281 C 105.074219 90 105.414062 95.625 105.414062 97.085938 C 105.414062 98.550781 106.199219 98.210938 108.449219 97.085938 C 113.738281 94.5 119.585938 87.523438 119.585938 87.523438 C 118.914062 91.914062 113.175781 95.851562 112.613281 100.011719 C 111.261719 111.488281 100.125 117 72.5625 117 L 72.449219 117 L 73.125 117 "/>
<path style=" stroke:none;fill-rule:nonzero;fill:rgb(80%,67.45098%,55.294118%);fill-opacity:1;" d="M 90.449219 52.539062 C 91.460938 56.023438 95.0625 67.835938 88.085938 63.898438 C 88.085938 63.898438 91.011719 65.585938 92.8125 72 C 94.726562 78.414062 99.335938 79.199219 99.335938 79.199219 C 99.335938 79.199219 106.875 80.664062 112.5 75.824219 C 117.226562 71.773438 118.011719 64.574219 115.988281 59.0625 C 113.960938 53.664062 110.363281 51.976562 105.074219 50.851562 C 99.789062 49.613281 89.210938 48.601562 90.449219 52.539062 Z M 90.449219 52.539062 "/>
<path style=" stroke:none;fill-rule:nonzero;fill:rgb(0%,0%,0%);fill-opacity:1;" d="M 113.738281 65.363281 C 113.738281 70.832031 109.304688 75.261719 103.835938 75.261719 C 98.371094 75.261719 93.9375 70.832031 93.9375 65.363281 C 93.9375 59.894531 98.371094 55.460938 103.835938 55.460938 C 109.304688 55.460938 113.738281 59.894531 113.738281 65.363281 Z M 113.738281 65.363281 "/>
<path style=" stroke:none;fill-rule:nonzero;fill:rgb(100%,100%,100%);fill-opacity:1;" d="M 103.835938 60.976562 C 103.835938 62.402344 102.679688 63.5625 101.25 63.5625 C 99.820312 63.5625 98.664062 62.402344 98.664062 60.976562 C 98.664062 59.546875 99.820312 58.386719 101.25 58.386719 C 102.679688 58.386719 103.835938 59.546875 103.835938 60.976562 Z M 103.835938 60.976562 "/>
<path style=" stroke:none;fill-rule:nonzero;fill:rgb(93.72549%,80%,63.921569%);fill-opacity:1;" d="M 88.761719 64.914062 C 88.761719 64.914062 97.648438 70.988281 102.488281 76.949219 C 107.324219 82.914062 107.210938 84.039062 107.210938 84.039062 L 103.726562 85.613281 C 103.726562 85.613281 98.773438 76.273438 92.699219 72.789062 C 86.511719 69.300781 85.835938 66.375 85.835938 66.375 Z M 88.761719 64.914062 "/>
<path style=" stroke:none;fill-rule:nonzero;fill:rgb(80%,67.45098%,55.294118%);fill-opacity:1;" d="M 73.011719 61.3125 C 68.175781 61.425781 64.574219 64.460938 61.3125 67.273438 C 57.601562 70.539062 51.074219 72.789062 48.488281 75.601562 C 45.898438 78.414062 42.414062 81.226562 41.175781 85.613281 C 39.9375 90 39.488281 95.625 39.488281 97.085938 C 39.488281 98.550781 39.710938 98.664062 36.449219 97.085938 C 31.164062 94.613281 25.3125 87.523438 25.3125 87.523438 C 25.988281 91.914062 31.726562 95.851562 32.289062 100.011719 C 33.863281 111.488281 45 117 72.5625 117 L 73.125 117 "/>
<path style=" stroke:none;fill-rule:nonzero;fill:rgb(33.72549%,20%,16.862745%);fill-opacity:1;" d="M 99.113281 80.324219 C 93.710938 73.6875 85.050781 67.5 73.011719 67.5 L 72.898438 67.5 C 60.863281 67.5 52.199219 73.6875 46.800781 80.324219 C 41.175781 87.1875 41.625 89.886719 41.625 96.414062 C 41.625 120.039062 49.949219 113.289062 55.460938 116.210938 C 61.085938 119.023438 66.9375 118.125 72.898438 118.125 L 73.011719 118.125 C 79.085938 118.125 84.824219 118.914062 90.449219 116.101562 C 95.960938 113.289062 104.289062 120.261719 104.289062 96.636719 C 104.398438 90.113281 104.738281 87.1875 99.113281 80.324219 Z M 99.113281 80.324219 "/>
<path style=" stroke:none;fill-rule:nonzero;fill:rgb(26.666667%,15.686275%,13.72549%);fill-opacity:1;" d="M 72.449219 73.351562 C 72.449219 73.351562 71.664062 84.261719 70.085938 86.398438 L 73.011719 85.726562 Z M 72.449219 73.351562 "/>
<path style=" stroke:none;fill-rule:nonzero;fill:rgb(26.666667%,15.686275%,13.72549%);fill-opacity:1;" d="M 73.238281 73.351562 C 73.238281 73.351562 74.023438 84.261719 75.601562 86.398438 L 72.675781 85.726562 Z M 73.238281 73.351562 "/>
<path style=" stroke:none;fill-rule:nonzero;fill:rgb(33.72549%,20%,16.862745%);fill-opacity:1;" d="M 63.789062 70.761719 C 62.664062 68.175781 66.710938 64.011719 73.125 63.898438 C 79.539062 63.898438 83.585938 68.0625 82.460938 70.761719 C 81.335938 73.460938 77.289062 74.25 73.125 74.363281 C 69.074219 74.25 64.914062 73.460938 63.789062 70.761719 Z M 63.789062 70.761719 "/>
<path style=" stroke:none;fill-rule:nonzero;fill:rgb(0%,0%,0%);fill-opacity:1;" d="M 73.125 73.351562 C 73.125 72.898438 76.949219 72.789062 78.976562 71.4375 C 78.976562 71.4375 74.8125 72.789062 73.914062 72.226562 C 73.011719 71.773438 72.789062 70.425781 72.789062 70.425781 C 72.789062 70.425781 72.449219 71.773438 71.773438 72.226562 C 70.988281 72.675781 66.261719 71.4375 66.261719 71.4375 C 66.261719 71.4375 72.5625 73.011719 72.5625 73.351562 C 72.5625 73.6875 72.449219 74.8125 72.449219 75.601562 C 72.449219 78.414062 72.449219 85.386719 72.898438 85.949219 C 73.574219 86.960938 73.351562 78.414062 73.351562 75.601562 C 73.238281 74.699219 73.238281 73.800781 73.125 73.351562 Z M 73.125 73.351562 "/>
<path style=" stroke:none;fill-rule:nonzero;fill:rgb(49.803922%,29.019608%,25.490196%);fill-opacity:1;" d="M 73.351562 88.425781 C 75.261719 88.425781 78.636719 89.773438 81.675781 91.914062 C 78.75 88.648438 75.261719 86.398438 73.351562 86.398438 C 71.324219 86.398438 67.050781 88.875 64.011719 92.476562 C 67.164062 90 71.210938 88.425781 73.351562 88.425781 Z M 73.351562 88.425781 "/>
<path style=" stroke:none;fill-rule:nonzero;fill:rgb(26.666667%,15.686275%,13.72549%);fill-opacity:1;" d="M 72.5625 108.335938 C 68.289062 108.335938 64.125 106.988281 60.300781 105.976562 C 59.511719 105.75 58.726562 106.3125 57.9375 106.085938 C 50.851562 103.835938 45.113281 100.011719 41.625 95.175781 L 41.625 96.300781 C 41.625 119.925781 49.949219 113.289062 55.460938 116.101562 C 61.085938 118.914062 66.9375 118.011719 72.898438 118.011719 L 73.011719 118.011719 C 79.085938 118.011719 84.824219 118.800781 90.449219 115.988281 C 95.960938 113.175781 104.289062 120.039062 104.289062 96.414062 C 104.289062 95.511719 104.289062 94.613281 104.398438 93.824219 C 101.136719 99.113281 95.175781 103.273438 87.75 105.75 C 87.074219 105.976562 85.5 105.414062 84.824219 105.523438 C 80.773438 106.875 77.175781 108.335938 72.5625 108.335938 Z M 72.5625 108.335938 "/>
<path style=" stroke:none;fill-rule:nonzero;fill:rgb(26.666667%,15.686275%,13.72549%);fill-opacity:1;" d="M 61.875 95.625 C 61.875 95.625 59.0625 104.0625 60.976562 107.773438 L 58.386719 106.648438 C 58.386719 106.648438 60.300781 98.101562 61.875 95.625 Z M 84.148438 95.625 C 84.148438 95.625 86.960938 104.0625 85.050781 107.773438 L 87.636719 106.648438 C 87.636719 106.648438 85.613281 98.101562 84.148438 95.625 Z M 84.148438 95.625 "/>
<path style=" stroke:none;fill-rule:nonzero;fill:rgb(80%,67.45098%,55.294118%);fill-opacity:1;" d="M 54.675781 52.539062 C 53.664062 56.023438 50.0625 67.835938 57.039062 63.898438 C 57.039062 63.898438 54.113281 65.585938 52.3125 72 C 50.511719 78.414062 45.789062 79.199219 45.789062 79.199219 C 45.789062 79.199219 38.25 80.664062 32.625 75.824219 C 27.898438 71.773438 27.113281 64.574219 29.136719 59.0625 C 31.164062 53.550781 34.761719 51.976562 40.050781 50.851562 C 45.335938 49.613281 55.800781 48.601562 54.675781 52.539062 Z M 54.675781 52.539062 "/>
<path style=" stroke:none;fill-rule:nonzero;fill:rgb(0%,0%,0%);fill-opacity:1;" d="M 73.011719 86.398438 C 76.050781 86.398438 85.5 92.925781 85.613281 100.914062 L 85.613281 100.460938 C 85.613281 92.136719 77.960938 85.5 73.011719 85.5 C 68.0625 85.5 60.414062 92.25 60.414062 100.460938 L 60.414062 100.914062 C 60.523438 92.925781 69.976562 86.398438 73.011719 86.398438 Z M 73.011719 86.398438 "/>
<path style=" stroke:none;fill-rule:nonzero;fill:rgb(20%,9.019608%,7.058824%);fill-opacity:1;" d="M 75.917969 68.964844 C 75.6875 68.0625 75.105469 67.429688 74.625 67.554688 C 74.144531 67.679688 73.941406 68.511719 74.175781 69.414062 C 74.410156 70.316406 74.988281 70.949219 75.46875 70.824219 C 75.949219 70.699219 76.152344 69.867188 75.917969 68.964844 Z M 75.917969 68.964844 "/>
<path style=" stroke:none;fill-rule:nonzero;fill:rgb(20%,9.019608%,7.058824%);fill-opacity:1;" d="M 71.046875 69.460938 C 71.320312 68.570312 71.160156 67.730469 70.6875 67.582031 C 70.210938 67.4375 69.601562 68.039062 69.328125 68.929688 C 69.050781 69.820312 69.210938 70.660156 69.6875 70.808594 C 70.160156 70.953125 70.769531 70.351562 71.046875 69.460938 Z M 71.046875 69.460938 "/>
<path style=" stroke:none;fill-rule:nonzero;fill:rgb(0%,0%,0%);fill-opacity:1;" d="M 51.75 65.363281 C 51.75 70.832031 47.316406 75.261719 41.851562 75.261719 C 36.382812 75.261719 31.949219 70.832031 31.949219 65.363281 C 31.949219 59.894531 36.382812 55.460938 41.851562 55.460938 C 47.316406 55.460938 51.75 59.894531 51.75 65.363281 Z M 51.75 65.363281 "/>
<path style=" stroke:none;fill-rule:nonzero;fill:rgb(100%,100%,100%);fill-opacity:1;" d="M 47.023438 60.976562 C 47.023438 62.402344 45.867188 63.5625 44.4375 63.5625 C 43.007812 63.5625 41.851562 62.402344 41.851562 60.976562 C 41.851562 59.546875 43.007812 58.386719 44.4375 58.386719 C 45.867188 58.386719 47.023438 59.546875 47.023438 60.976562 Z M 47.023438 60.976562 "/>
<path style=" stroke:none;fill-rule:nonzero;fill:rgb(49.803922%,29.019608%,25.490196%);fill-opacity:1;" d="M 75.9375 65.476562 C 75.9375 65.363281 73.351562 66.601562 72.675781 66.710938 C 72 66.601562 69.414062 65.363281 69.414062 65.476562 Z M 75.9375 65.476562 "/>
<path style=" stroke:none;fill-rule:nonzero;fill:rgb(93.72549%,80%,63.921569%);fill-opacity:1;" d="M 56.25 64.914062 C 56.25 64.914062 47.363281 70.988281 42.523438 76.949219 C 37.6875 82.914062 37.800781 84.039062 37.800781 84.039062 L 41.289062 85.613281 C 41.289062 85.613281 46.238281 76.273438 52.3125 72.789062 C 58.386719 69.300781 59.175781 66.375 59.175781 66.375 Z M 56.25 64.914062 "/>
<path style=" stroke:none;fill-rule:nonzero;fill:rgb(80%,67.45098%,55.294118%);fill-opacity:1;" d="M 36.789062 46.914062 C 36.789062 46.914062 33.75 55.238281 27 58.726562 C 27 58.726562 37.574219 57.488281 36.789062 46.914062 Z M 107.773438 46.914062 C 107.773438 46.914062 110.8125 55.238281 117.5625 58.726562 C 117.5625 58.726562 106.988281 57.488281 107.773438 46.914062 Z M 88.539062 62.4375 C 88.539062 62.4375 81.898438 55.460938 73.011719 55.238281 L 73.238281 55.238281 C 64.238281 55.460938 57.710938 62.4375 57.710938 62.4375 C 65.476562 57.039062 72.113281 57.148438 73.238281 57.148438 C 73.125 57.148438 80.773438 57.039062 88.539062 62.4375 Z M 80.773438 47.8125 C 80.773438 47.8125 77.398438 43.085938 72.898438 42.976562 L 73.125 42.976562 C 69.75 43.085938 65.363281 47.8125 65.363281 47.8125 C 69.1875 44.101562 73.125 44.210938 73.125 44.210938 C 73.125 44.210938 76.835938 44.101562 80.773438 47.8125 Z M 41.851562 82.351562 C 41.851562 82.351562 36.5625 84.9375 32.738281 83.363281 L 32.625 83.363281 C 29.25 81.449219 27.5625 75.710938 27.5625 75.710938 C 27.5625 75.710938 30.9375 85.835938 41.851562 82.351562 Z M 103.5 82.351562 C 103.5 82.351562 108.789062 84.9375 112.613281 83.363281 C 117.113281 81.449219 117.789062 75.710938 117.789062 75.710938 C 117.789062 75.710938 114.414062 85.835938 103.5 82.351562 Z M 103.5 82.351562 "/>
<path style=" stroke:none;fill-rule:nonzero;fill:rgb(80%,67.45098%,55.294118%);fill-opacity:1;" d="M 47.925781 46.351562 C 50.851562 45.789062 55.6875 45.675781 59.511719 46.914062 C 64.351562 48.601562 60.414062 54.789062 61.425781 55.125 C 62.4375 55.460938 63.789062 50.851562 72.789062 51.300781 C 81.898438 51.75 82.914062 55.800781 84.148438 55.125 C 85.386719 54.449219 82.914062 43.875 96.523438 46.351562 C 96.523438 46.351562 82.238281 42.523438 82.914062 52.875 C 82.914062 52.875 74.699219 46.574219 63.226562 52.199219 C 63.335938 52.199219 66.261719 42.523438 47.925781 46.351562 Z M 97.761719 46.351562 C 97.988281 46.351562 98.101562 46.460938 98.210938 46.460938 C 98.324219 46.460938 98.101562 46.351562 97.761719 46.351562 Z M 97.761719 46.351562 Z M 43.988281 32.511719 C 43.988281 32.511719 31.835938 47.8125 30.039062 53.664062 C 28.238281 59.625 26.886719 84.039062 25.3125 87.523438 L 19.6875 63.449219 L 30.039062 38.363281 Z M 101.136719 32.511719 C 101.136719 32.511719 113.289062 47.8125 115.085938 53.664062 C 116.886719 59.625 118.238281 84.039062 119.8125 87.523438 L 125.4375 63.449219 L 115.085938 38.363281 Z M 101.136719 32.511719 "/>
<path style=" stroke:none;fill-rule:nonzero;fill:rgb(33.72549%,20%,16.862745%);fill-opacity:1;" d="M 100.574219 32.511719 C 100.574219 32.511719 113.625 43.425781 117.449219 56.023438 C 121.273438 68.625 119.699219 83.925781 122.625 85.835938 C 126.789062 88.539062 131.511719 72.449219 133.085938 70.761719 C 135.5625 68.0625 143.773438 61.199219 144.335938 59.960938 C 144.898438 58.726562 127.6875 39.9375 120.148438 36.226562 C 111.039062 31.949219 99.789062 31.613281 100.574219 32.511719 Z M 100.574219 32.511719 "/>
<path style=" stroke:none;fill-rule:nonzero;fill:rgb(26.666667%,15.686275%,13.72549%);fill-opacity:1;" d="M 111.710938 39.261719 C 111.710938 39.261719 127.125 58.949219 126.898438 83.476562 L 133.085938 70.875 C 132.976562 70.875 127.574219 54.789062 111.710938 39.261719 Z M 111.710938 39.261719 "/>
<path style=" stroke:none;fill-rule:nonzero;fill:rgb(33.72549%,20%,16.862745%);fill-opacity:1;" d="M 43.988281 32.511719 C 43.988281 32.511719 30.9375 43.425781 27.113281 56.023438 C 23.289062 68.625 24.863281 83.925781 21.9375 85.835938 C 17.773438 88.539062 13.050781 72.449219 11.476562 70.761719 C 9 68.0625 0.789062 61.199219 0.226562 59.960938 C -0.335938 58.726562 16.875 39.9375 24.414062 36.226562 C 33.523438 31.949219 44.773438 31.613281 43.988281 32.511719 Z M 43.988281 32.511719 "/>
<path style=" stroke:none;fill-rule:nonzero;fill:rgb(26.666667%,15.686275%,13.72549%);fill-opacity:1;" d="M 32.851562 39.261719 C 32.851562 39.261719 17.4375 58.949219 17.664062 83.476562 L 11.585938 70.875 C 11.585938 70.875 16.988281 54.789062 32.851562 39.261719 Z M 32.851562 39.261719 "/>
<path style=" stroke:none;fill-rule:nonzero;fill:rgb(80%,67.45098%,55.294118%);fill-opacity:1;" d="M 24.523438 83.925781 C 24.523438 83.925781 25.648438 90 27.449219 91.914062 C 29.25 93.824219 28.011719 90.449219 28.011719 90.449219 C 28.011719 90.449219 26.101562 89.4375 26.4375 81.675781 C 26.773438 73.914062 24.523438 83.925781 24.523438 83.925781 Z M 120.488281 83.925781 C 120.488281 83.925781 119.363281 90 117.5625 91.914062 C 115.761719 93.824219 117 90.449219 117 90.449219 C 117 90.449219 118.914062 89.4375 118.574219 81.675781 C 118.238281 73.914062 120.488281 83.925781 120.488281 83.925781 Z M 120.488281 83.925781 "/>
<path style=" stroke:none;fill-rule:nonzero;fill:rgb(26.666667%,15.686275%,13.72549%);fill-opacity:1;" d="M 62.210938 79.3125 C 62.210938 79.808594 61.808594 80.210938 61.3125 80.210938 C 60.816406 80.210938 60.414062 79.808594 60.414062 79.3125 C 60.414062 78.816406 60.816406 78.414062 61.3125 78.414062 C 61.808594 78.414062 62.210938 78.816406 62.210938 79.3125 Z M 62.210938 79.3125 "/>
<path style=" stroke:none;fill-rule:nonzero;fill:rgb(26.666667%,15.686275%,13.72549%);fill-opacity:1;" d="M 57.039062 84.710938 C 57.039062 85.210938 56.632812 85.613281 56.136719 85.613281 C 55.640625 85.613281 55.238281 85.210938 55.238281 84.710938 C 55.238281 84.214844 55.640625 83.8125 56.136719 83.8125 C 56.632812 83.8125 57.039062 84.214844 57.039062 84.710938 Z M 57.039062 84.710938 "/>
<path style=" stroke:none;fill-rule:nonzero;fill:rgb(26.666667%,15.686275%,13.72549%);fill-opacity:1;" d="M 55.351562 79.3125 C 55.351562 79.808594 54.945312 80.210938 54.449219 80.210938 C 53.953125 80.210938 53.550781 79.808594 53.550781 79.3125 C 53.550781 78.816406 53.953125 78.414062 54.449219 78.414062 C 54.945312 78.414062 55.351562 78.816406 55.351562 79.3125 Z M 55.351562 79.3125 "/>
<path style=" stroke:none;fill-rule:nonzero;fill:rgb(26.666667%,15.686275%,13.72549%);fill-opacity:1;" d="M 84.148438 79.3125 C 84.148438 79.808594 83.746094 80.210938 83.25 80.210938 C 82.753906 80.210938 82.351562 79.808594 82.351562 79.3125 C 82.351562 78.816406 82.753906 78.414062 83.25 78.414062 C 83.746094 78.414062 84.148438 78.816406 84.148438 79.3125 Z M 84.148438 79.3125 "/>
<path style=" stroke:none;fill-rule:nonzero;fill:rgb(26.666667%,15.686275%,13.72549%);fill-opacity:1;" d="M 89.324219 84.710938 C 89.324219 85.210938 88.921875 85.613281 88.425781 85.613281 C 87.929688 85.613281 87.523438 85.210938 87.523438 84.710938 C 87.523438 84.214844 87.929688 83.8125 88.425781 83.8125 C 88.921875 83.8125 89.324219 84.214844 89.324219 84.710938 Z M 89.324219 84.710938 "/>
<path style=" stroke:none;fill-rule:nonzero;fill:rgb(26.666667%,15.686275%,13.72549%);fill-opacity:1;" d="M 91.011719 79.3125 C 91.011719 79.808594 90.609375 80.210938 90.113281 80.210938 C 89.617188 80.210938 89.210938 79.808594 89.210938 79.3125 C 89.210938 78.816406 89.617188 78.414062 90.113281 78.414062 C 90.609375 78.414062 91.011719 78.816406 91.011719 79.3125 Z M 91.011719 79.3125 "/>
</g>
</svg>
