<?xml version="1.0" encoding="UTF-8"?>
<svg xmlns="http://www.w3.org/2000/svg" xmlns:xlink="http://www.w3.org/1999/xlink" width="144px" height="144px" viewBox="0 0 144 144" version="1.1">
<g id="surface1">
<path style=" stroke:none;fill-rule:nonzero;fill:rgb(100%,100%,100%);fill-opacity:1;" d="M 135 72 C 134.996094 102.054688 113.765625 127.925781 84.285156 133.785156 C 54.808594 139.648438 25.292969 123.871094 13.792969 96.101562 C 2.292969 68.332031 12.011719 36.308594 37.003906 19.609375 C 61.992188 2.914062 95.296875 6.195312 116.550781 27.449219 C 128.382812 39.253906 135.023438 55.285156 135 72 Z M 135 72 "/>
<path style=" stroke:none;fill-rule:nonzero;fill:rgb(42.745098%,60.392157%,0%);fill-opacity:1;" d="M 125.550781 72 C 125.546875 97.546875 107.5 119.535156 82.445312 124.519531 C 57.386719 129.5 32.300781 116.089844 22.523438 92.484375 C 12.75 68.882812 21.007812 41.660156 42.25 27.46875 C 63.496094 13.277344 91.804688 16.066406 109.867188 34.132812 C 119.925781 44.164062 125.570312 57.792969 125.550781 72 Z M 125.550781 72 "/>
<path style=" stroke:none;fill-rule:nonzero;fill:rgb(100%,100%,100%);fill-opacity:1;" d="M 52.46875 71.921875 C 52.421875 70.742188 52.867188 69.597656 53.703125 68.761719 C 54.539062 67.929688 55.6875 67.480469 56.867188 67.53125 C 59.292969 67.535156 61.253906 69.5 61.253906 71.925781 C 61.253906 74.351562 59.285156 76.316406 56.859375 76.316406 C 54.433594 76.316406 52.46875 74.347656 52.46875 71.921875 Z M 52.46875 71.921875 "/>
<path style=" stroke:none;fill-rule:nonzero;fill:rgb(100%,100%,100%);fill-opacity:1;" d="M 67.640625 71.921875 C 67.589844 70.742188 68.039062 69.597656 68.875 68.761719 C 69.710938 67.929688 70.855469 67.480469 72.035156 67.53125 C 74.460938 67.535156 76.425781 69.5 76.421875 71.925781 C 76.421875 74.351562 74.453125 76.316406 72.03125 76.316406 C 69.605469 76.316406 67.640625 74.347656 67.640625 71.921875 Z M 67.640625 71.921875 "/>
<path style=" stroke:none;fill-rule:nonzero;fill:rgb(100%,100%,100%);fill-opacity:1;" d="M 82.800781 71.921875 C 82.75 70.742188 83.199219 69.597656 84.035156 68.761719 C 84.871094 67.929688 86.015625 67.480469 87.195312 67.53125 C 89.621094 67.535156 91.585938 69.5 91.585938 71.925781 C 91.582031 74.351562 89.617188 76.316406 87.191406 76.316406 C 84.765625 76.316406 82.800781 74.347656 82.800781 71.921875 Z M 82.800781 71.921875 "/>
<path style=" stroke:none;fill-rule:nonzero;fill:rgb(100%,100%,100%);fill-opacity:1;" d="M 34.285156 76.003906 L 34.285156 68.140625 C 35.632812 68.136719 36.972656 67.921875 38.25 67.5 C 39.082031 67.039062 39.765625 66.347656 40.226562 65.515625 C 40.832031 64.4375 41.21875 63.25 41.367188 62.023438 C 41.574219 60.207031 41.65625 58.378906 41.617188 56.550781 C 41.523438 53.585938 41.707031 50.617188 42.167969 47.6875 C 42.453125 46.175781 43.144531 44.773438 44.175781 43.636719 C 45.125 42.472656 46.390625 41.609375 47.820312 41.152344 C 49.757812 40.683594 51.75 40.484375 53.742188 40.5625 L 55.378906 40.5625 L 55.378906 47.03125 C 53.898438 46.9375 52.414062 47.074219 50.980469 47.4375 C 50.371094 47.675781 49.867188 48.117188 49.546875 48.683594 C 49.195312 50.070312 49.046875 51.496094 49.09375 52.921875 C 49.09375 54.296875 49.003906 56.910156 48.816406 60.753906 C 48.773438 62.535156 48.503906 64.304688 48.015625 66.015625 C 47.65625 67.210938 47.097656 68.335938 46.363281 69.339844 C 45.488281 70.394531 44.453125 71.304688 43.292969 72.039062 C 44.4375 72.722656 45.445312 73.605469 46.273438 74.644531 C 47.085938 75.722656 47.6875 76.945312 48.046875 78.246094 C 48.523438 80.109375 48.792969 82.023438 48.847656 83.949219 C 48.992188 87.574219 49.0625 89.890625 49.0625 90.894531 C 49.011719 92.3125 49.175781 93.726562 49.558594 95.089844 C 49.902344 95.671875 50.429688 96.128906 51.058594 96.386719 C 52.464844 96.773438 53.929688 96.925781 55.390625 96.835938 L 55.390625 103.523438 L 53.757812 103.523438 C 51.785156 103.570312 49.816406 103.277344 47.941406 102.660156 C 46.511719 102.230469 45.21875 101.433594 44.191406 100.351562 C 43.148438 99.210938 42.4375 97.8125 42.136719 96.300781 C 41.71875 93.792969 41.542969 91.253906 41.613281 88.714844 C 41.71875 86.089844 41.550781 83.464844 41.117188 80.878906 C 40.839844 79.445312 40.125 78.132812 39.066406 77.125 C 37.597656 76.339844 35.949219 75.953125 34.285156 76.003906 Z M 34.285156 76.003906 "/>
<path style=" stroke:none;fill-rule:nonzero;fill:rgb(100%,100%,100%);fill-opacity:1;" d="M 104.78125 77.144531 C 103.722656 78.148438 103.003906 79.460938 102.730469 80.898438 C 102.292969 83.484375 102.128906 86.109375 102.234375 88.730469 C 102.300781 91.265625 102.121094 93.800781 101.699219 96.300781 C 101.398438 97.8125 100.6875 99.210938 99.648438 100.351562 C 98.625 101.445312 97.332031 102.253906 95.898438 102.695312 C 94.023438 103.3125 92.058594 103.605469 90.085938 103.558594 L 88.453125 103.558594 L 88.453125 96.886719 C 89.910156 96.976562 91.375 96.824219 92.785156 96.433594 C 93.414062 96.175781 93.9375 95.722656 94.285156 95.140625 C 94.664062 93.773438 94.832031 92.359375 94.777344 90.945312 C 94.777344 89.941406 94.851562 87.625 94.996094 83.996094 C 95.054688 82.074219 95.324219 80.164062 95.804688 78.300781 C 96.164062 77 96.765625 75.777344 97.578125 74.699219 C 98.40625 73.65625 99.414062 72.773438 100.558594 72.09375 C 99.398438 71.359375 98.363281 70.449219 97.488281 69.394531 C 96.753906 68.386719 96.195312 67.261719 95.835938 66.070312 C 95.347656 64.355469 95.078125 62.589844 95.035156 60.808594 C 94.847656 56.960938 94.757812 54.351562 94.757812 52.972656 C 94.804688 51.546875 94.65625 50.121094 94.304688 48.738281 C 93.984375 48.171875 93.480469 47.730469 92.871094 47.492188 C 91.4375 47.128906 89.953125 46.992188 88.472656 47.082031 L 88.472656 40.570312 L 90.109375 40.570312 C 92.101562 40.492188 94.09375 40.691406 96.03125 41.160156 C 97.460938 41.617188 98.726562 42.480469 99.675781 43.644531 C 100.707031 44.785156 101.398438 46.1875 101.683594 47.695312 C 102.144531 50.625 102.328125 53.59375 102.234375 56.558594 C 102.195312 58.386719 102.277344 60.214844 102.484375 62.03125 C 102.632812 63.261719 103.019531 64.445312 103.625 65.523438 C 104.085938 66.359375 104.769531 67.046875 105.601562 67.507812 C 106.882812 67.933594 108.222656 68.152344 109.574219 68.15625 L 109.574219 76.003906 C 107.90625 75.957031 106.25 76.347656 104.78125 77.144531 Z M 104.78125 77.144531 "/>
</g>
</svg>
